<svg width="32" height="28" viewBox="0 0 32 28" fill="none" xmlns="http://www.w3.org/2000/svg">
<path fill-rule="evenodd" clip-rule="evenodd" d="M0.257812 5.84595L5.01421 5.86036L5.01509 19.1249C4.9294 20.5548 5.40089 21.5153 6.8693 21.6552H18.2857L12.0428 14.9076H18.7719L31.117 27.5079L24.3228 27.5814L22.974 26.5448C17.4671 26.5448 11.9604 26.5448 6.4536 26.5448C3.633 26.3812 0.460606 23.6371 0.279112 20.6879L0.257812 5.84595V5.84595Z" fill="#54AA2F"/>
<path fill-rule="evenodd" clip-rule="evenodd" d="M26.749 16.0211L22.0659 11.5356C22.0659 9.95031 22.0659 8.36514 22.0659 6.77982C22.1142 5.76741 21.2218 4.4696 20.008 4.37502H6.33008V0.0724327H20.5048C23.405 0.057923 26.8991 3.55134 26.726 6.88774L26.749 16.0211Z" fill="#54AA2F"/>
<path fill-rule="evenodd" clip-rule="evenodd" d="M4.91969 4.45052H0.234375V0H4.91969V4.45052Z" fill="#FFD505"/>
</svg>
