<svg width="328" height="382" viewBox="0 0 328 382" fill="none" xmlns="http://www.w3.org/2000/svg">
<path fill-rule="evenodd" clip-rule="evenodd" d="M84.896 19.868L50.396 39.702L34.021 68.392L17.645 97.083L18.068 97.505L18.49 97.927L32.943 89.651L47.396 81.375L81.396 61.834L115.396 42.294L118.586 40.652L121.777 39.01L143.564 51.586L165.352 64.161L173.874 69.397L182.396 74.634L205.42 87.761L228.443 100.889L230.192 101.56L231.94 102.231L231.668 82.903L231.396 63.575L201.396 46.14L171.396 28.706L146.695 14.353L121.993 0L120.695 0.0179996L119.396 0.0349998L84.896 19.868ZM139.896 2.107L141.396 3.096L179.396 24.641L217.396 46.187L228.396 52.472L239.396 58.756L239.653 122.878L239.911 187H240.88H241.85L257.873 177.766L273.896 168.532V103.96V39.388L239.955 20.194L206.013 1L172.205 1.059L138.396 1.118L139.896 2.107ZM67.639 80.381L13.887 111.762L12.392 113.004L10.896 114.245V153.893V193.542L15.245 201.021L19.595 208.5L31.995 230L44.396 251.5L44.896 192.041L45.396 132.581L53.896 127.434L62.396 122.287L80.896 111.328L99.396 100.369L127.151 84.448L154.905 68.527L154.58 67.553L154.256 66.579L138.826 57.794L123.396 49.009L122.394 49.004L121.391 49L67.639 80.381ZM282.896 112.784V172.02L281.146 173.501L279.396 174.982L255.896 189.465L232.396 203.948L202.677 220.724L172.959 237.5L172.927 238.149L172.896 238.798L188.615 248.066L204.334 257.333L205.365 257.332L206.396 257.33L239.396 238.018L272.396 218.705L292.896 206.743L313.396 194.781L315.146 193.236L316.896 191.69V152.133V112.576L307.472 96.038L298.048 79.5L290.472 66.525L282.896 53.549V112.784ZM70.896 127.409L54.396 136.876L54.177 201.688L53.959 266.5L63.677 271.912L73.396 277.323L97.671 291.162L121.947 305H155.621H189.296L188.346 304.074L187.396 303.148L137.896 275.136L88.396 247.124L87.896 182.533L87.396 117.942L70.896 127.409ZM95.896 222.858V241.716L151.101 273.608L206.306 305.5L207.451 305.386L208.595 305.272L242.79 285.488L276.985 265.704L279.353 261.602L281.722 257.5L295.83 233.104L309.938 208.709L309.609 208.379L309.279 208.05L286.338 221.319L263.396 234.588L235.974 250.46L208.552 266.333L207.474 266.332L206.396 266.33L169.396 244.988L132.396 223.645L115.282 213.823L98.168 204H97.032H95.896V222.858ZM15.573 331.616L14 336.5L7.915 356L1.831 375.5L0.916 378.25L0 381H5.72H11.439L15.418 368.398L19.396 355.795L24.811 368.432L30.226 381.07L30.954 380.285L31.681 379.5L36.497 368.259L41.313 357.017L42.016 357.759L42.719 358.5L46.119 369.5L49.519 380.5L55.338 380.804L61.157 381.108L60.658 379.304L60.159 377.5L52.33 352.747L44.501 327.995L43.761 328.747L43.02 329.5L37.863 341.5L32.706 353.5L31.728 356L30.75 358.5L23.948 342.616L17.146 326.732L15.573 331.616ZM296.436 352.745L286.587 378.5L286.135 379.75L285.682 381H290.711H295.741L296.896 377.5L298.051 374H306.525H314.998L316.46 377.5L317.923 381H322.923H327.923L326.568 377.75L325.214 374.5L316.413 351.5L307.611 328.5L306.949 327.745L306.286 326.99L296.436 352.745ZM107.902 345.75L107.907 363.5L108.94 367.219L109.973 370.938L112.56 374.013L115.148 377.088L118.982 379.044L122.816 381H128.144H133.472L137.922 378.75L142.373 376.5L145.384 371.582L148.396 366.664L148.722 347.332L149.049 328H144.034H139.02L138.708 346.584L138.396 365.168L135.13 368.084L131.864 371H128.28H124.696L121.296 367.6L117.896 364.2V346.1V328H112.896H107.896L107.902 345.75ZM199.896 333V338H210.896H221.896V338.477V338.954L210.396 359.608L198.896 380.261V380.631V381H218.396H237.896V376V371H226.896H215.896V370.523V370.046L227.396 349.392L238.896 328.739V328.369V328H219.396H199.896V333ZM309.812 360.788L311.867 366H306.881H301.896V365.289V364.579L304.127 358.826L306.357 353.073L307.058 354.324L307.758 355.576L309.812 360.788Z" fill="url(#paint0_linear_11_10)"/>
<path d="M14 336.5L15.573 331.616L17.146 326.732L23.948 342.616L30.75 358.5L31.728 356L32.706 353.5L37.863 341.5L43.02 329.5L43.761 328.747L44.501 327.995L52.33 352.747L60.159 377.5L60.658 379.304L61.157 381.108L55.338 380.804L49.519 380.5L46.119 369.5L42.719 358.5L42.016 357.759L41.313 357.017L36.497 368.259L31.681 379.5L30.954 380.285L30.226 381.07L24.811 368.432L19.396 355.795L15.418 368.398L11.439 381H5.72H0L0.916 378.25L1.831 375.5L7.915 356L14 336.5Z" fill="url(#paint1_linear_11_10)"/>
<path d="M137.808 115.706L140.483 107.353L143.157 99L154.725 126.167L166.292 153.333L167.955 149.057L169.618 144.782L178.388 124.258L187.157 103.734L188.417 102.446L189.676 101.16L202.989 143.494L216.303 185.829L217.151 188.915L218 192L208.105 191.48L198.209 190.96L192.427 172.147L186.645 153.333L185.45 152.066L184.254 150.797L176.065 170.024L167.875 189.25L166.639 190.592L165.401 191.935L156.192 170.32L146.984 148.707L140.219 170.262L133.452 191.815H123.727H114L115.558 187.112L117.114 182.409L127.46 149.057L137.808 115.706Z" fill="url(#paint2_linear_11_10)"/>
<defs>
<linearGradient id="paint0_linear_11_10" x1="163.962" y1="-47.5" x2="163.962" y2="381.108" gradientUnits="userSpaceOnUse">
<stop stop-color="#EECB84"/>
<stop offset="0.5" stop-color="#FFE5AE"/>
<stop offset="1" stop-color="#EECB84"/>
</linearGradient>
<linearGradient id="paint1_linear_11_10" x1="163.962" y1="-47.5" x2="163.962" y2="381.108" gradientUnits="userSpaceOnUse">
<stop stop-color="#EECB84"/>
<stop offset="0.5" stop-color="#FFE5AE"/>
<stop offset="1" stop-color="#EECB84"/>
</linearGradient>
<linearGradient id="paint2_linear_11_10" x1="166" y1="87.4088" x2="166" y2="192" gradientUnits="userSpaceOnUse">
<stop stop-color="#EECB84"/>
<stop offset="0.5" stop-color="#FFE5AE"/>
<stop offset="1" stop-color="#EECB84"/>
</linearGradient>
</defs>
</svg>
