<svg width="436" height="436" viewBox="0 0 436 436" fill="none" xmlns="http://www.w3.org/2000/svg">
<rect width="436" height="436" rx="218" fill="#1D2229"/>
<path fill-rule="evenodd" clip-rule="evenodd" d="M139 84.9005L104.5 104.767L88.125 133.504L71.749 162.242L72.172 162.665L72.594 163.087L87.047 154.798L101.5 146.508L135.5 126.935L169.5 107.363L172.69 105.719L175.881 104.074L197.668 116.67L219.456 129.266L227.978 134.511L236.5 139.756L259.524 152.905L282.547 166.054L284.296 166.726L286.044 167.398L285.772 148.039L285.5 128.679L255.5 111.216L225.5 93.753L200.799 79.3765L176.097 65L174.799 65.018L173.5 65.0351L139 84.9005ZM194 67.1104L195.5 68.1011L233.5 89.6813L271.5 111.263L282.5 117.558L293.5 123.852L293.757 188.079L294.015 252.306H294.984H295.954L311.977 243.057L328 233.808V169.13V104.452L294.059 85.2271L260.117 66.0016L226.309 66.0607L192.5 66.1198L194 67.1104ZM121.743 145.513L67.991 176.945L66.496 178.189L65 179.432V219.145V258.859L69.349 266.35L73.699 273.841L86.099 295.376L98.5 316.912L99 257.355L99.5 197.798L108 192.643L116.5 187.487L135 176.51L153.5 165.533L181.255 149.586L209.009 133.639L208.684 132.664L208.36 131.688L192.93 122.889L177.5 114.089L176.498 114.084L175.495 114.08L121.743 145.513ZM337 177.969V237.302L335.25 238.785L333.5 240.268L310 254.775L286.5 269.282L256.781 286.085L227.063 302.889L227.031 303.539L227 304.189L242.719 313.472L258.438 322.754L259.469 322.753L260.5 322.751L293.5 303.408L326.5 284.063L347 272.081L367.5 260.1L369.25 258.552L371 257.004V217.382V177.76L361.576 161.195L352.152 144.63L344.576 131.634L337 118.637V177.969ZM125 192.618L108.5 202.1L108.281 267.018L108.063 331.936L117.781 337.357L127.5 342.777L151.775 356.639L176.051 370.499H209.725H243.4L242.45 369.572L241.5 368.644L192 340.586L142.5 312.528L142 247.832L141.5 183.135L125 192.618ZM150 288.223V307.112L205.205 339.056L260.41 371L261.555 370.886L262.699 370.772L296.894 350.955L331.089 331.139L333.457 327.03L335.826 322.921L349.934 298.486L364.042 274.051L363.713 273.72L363.383 273.391L340.442 286.681L317.5 299.972L290.078 315.87L262.656 331.769L261.578 331.768L260.5 331.766L223.5 310.389L186.5 289.011L169.386 279.173L152.272 269.334H151.136H150V288.223Z" fill="url(#paint0_linear_11_49)"/>
<path d="M189.808 187.907L192.483 179.54L195.157 171.173L206.725 198.385L218.292 225.596L219.955 221.313L221.618 217.03L230.388 196.473L239.157 175.915L240.417 174.625L241.676 173.337L254.989 215.74L268.303 258.145L269.151 261.235L270 264.326L260.105 263.805L250.209 263.284L244.427 244.44L238.645 225.596L237.45 224.326L236.254 223.055L228.065 242.314L219.875 261.571L218.639 262.916L217.401 264.261L208.192 242.61L198.984 220.962L192.219 242.552L185.452 264.141H175.727H166L167.558 259.43L169.114 254.719L179.46 221.313L189.808 187.907Z" fill="url(#paint1_linear_11_49)"/>
<defs>
<linearGradient id="paint0_linear_11_49" x1="218.065" y1="17.4223" x2="218.065" y2="446.732" gradientUnits="userSpaceOnUse">
<stop stop-color="#EECB84"/>
<stop offset="0.5" stop-color="#FFE5AE"/>
<stop offset="1" stop-color="#EECB84"/>
</linearGradient>
<linearGradient id="paint1_linear_11_49" x1="218" y1="159.563" x2="218" y2="264.326" gradientUnits="userSpaceOnUse">
<stop stop-color="#EECB84"/>
<stop offset="0.5" stop-color="#FFE5AE"/>
<stop offset="1" stop-color="#EECB84"/>
</linearGradient>
</defs>
</svg>
