<svg width="436" height="436" viewBox="0 0 436 436" fill="none" xmlns="http://www.w3.org/2000/svg">
<g clip-path="url(#clip0_11_22)">
<rect width="436" height="436" rx="218" fill="white"/>
<path d="M104.5 104.767L139 84.9005L173.5 65.0351L174.799 65.018L176.097 65L200.799 79.3765L225.5 93.753L255.5 111.216L285.5 128.679L285.772 148.039L286.044 167.398L284.296 166.726L282.547 166.054L259.524 152.905L236.5 139.756L227.978 134.511L219.456 129.266L197.668 116.67L175.881 104.074L172.69 105.719L169.5 107.363L135.5 126.935L101.5 146.508L87.047 154.798L72.594 163.087L72.172 162.665L71.749 162.242L88.125 133.504L104.5 104.767Z" fill="url(#paint0_linear_11_22)"/>
<path d="M195.5 68.1011L194 67.1104L192.5 66.1198L226.309 66.0607L260.117 66.0016L294.059 85.2271L328 104.452V169.13V233.808L311.977 243.057L295.954 252.306H294.984H294.015L293.757 188.079L293.5 123.852L282.5 117.558L271.5 111.263L233.5 89.6813L195.5 68.1011Z" fill="url(#paint1_linear_11_22)"/>
<path d="M67.991 176.945L121.743 145.513L175.495 114.08L176.498 114.084L177.5 114.089L192.93 122.889L208.36 131.688L208.684 132.664L209.009 133.639L181.255 149.586L153.5 165.533L135 176.51L116.5 187.487L108 192.643L99.5 197.798L99 257.355L98.5 316.912L86.099 295.376L73.699 273.841L69.349 266.35L65 258.859V219.145V179.432L66.496 178.189L67.991 176.945Z" fill="url(#paint2_linear_11_22)"/>
<path d="M337 237.302V177.969V118.637L344.576 131.634L352.152 144.63L361.576 161.195L371 177.76V217.382V257.004L369.25 258.552L367.5 260.1L347 272.081L326.5 284.063L293.5 303.408L260.5 322.751L259.469 322.753L258.438 322.754L242.719 313.472L227 304.189L227.031 303.539L227.063 302.889L256.781 286.085L286.5 269.282L310 254.775L333.5 240.268L335.25 238.785L337 237.302Z" fill="url(#paint3_linear_11_22)"/>
<path d="M108.5 202.1L125 192.618L141.5 183.135L142 247.832L142.5 312.528L192 340.586L241.5 368.644L242.45 369.572L243.4 370.499H209.725H176.051L151.775 356.639L127.5 342.777L117.781 337.357L108.063 331.936L108.281 267.018L108.5 202.1Z" fill="url(#paint4_linear_11_22)"/>
<path d="M150 307.112V288.223V269.334H151.136H152.272L169.386 279.173L186.5 289.011L223.5 310.389L260.5 331.766L261.578 331.768L262.656 331.769L290.078 315.87L317.5 299.972L340.442 286.681L363.383 273.391L363.713 273.72L364.042 274.051L349.934 298.486L335.826 322.921L333.457 327.03L331.089 331.139L296.894 350.955L262.699 370.772L261.555 370.886L260.41 371L205.205 339.056L150 307.112Z" fill="url(#paint5_linear_11_22)"/>
<path d="M189.808 187.706L192.483 179.353L195.157 171L206.725 198.167L218.292 225.333L219.955 221.057L221.618 216.782L230.388 196.258L239.157 175.734L240.417 174.446L241.676 173.16L254.989 215.494L268.303 257.829L269.151 260.915L270 264L260.105 263.48L250.209 262.96L244.427 244.147L238.645 225.333L237.45 224.066L236.254 222.797L228.065 242.024L219.875 261.25L218.639 262.592L217.401 263.935L208.192 242.32L198.984 220.707L192.219 242.262L185.452 263.815H175.727H166L167.558 259.112L169.114 254.409L179.46 221.057L189.808 187.706Z" fill="url(#paint6_linear_11_22)"/>
</g>
<defs>
<linearGradient id="paint0_linear_11_22" x1="624.104" y1="-199.432" x2="-150.214" y2="607.123" gradientUnits="userSpaceOnUse">
<stop stop-color="#161B22"/>
<stop offset="0.5" stop-color="#949494"/>
<stop offset="1" stop-color="#222216"/>
</linearGradient>
<linearGradient id="paint1_linear_11_22" x1="624.104" y1="-199.432" x2="-150.214" y2="607.123" gradientUnits="userSpaceOnUse">
<stop stop-color="#161B22"/>
<stop offset="0.5" stop-color="#949494"/>
<stop offset="1" stop-color="#222216"/>
</linearGradient>
<linearGradient id="paint2_linear_11_22" x1="624.104" y1="-199.432" x2="-150.214" y2="607.123" gradientUnits="userSpaceOnUse">
<stop stop-color="#161B22"/>
<stop offset="0.5" stop-color="#949494"/>
<stop offset="1" stop-color="#222216"/>
</linearGradient>
<linearGradient id="paint3_linear_11_22" x1="624.104" y1="-199.432" x2="-150.214" y2="607.123" gradientUnits="userSpaceOnUse">
<stop stop-color="#161B22"/>
<stop offset="0.5" stop-color="#949494"/>
<stop offset="1" stop-color="#222216"/>
</linearGradient>
<linearGradient id="paint4_linear_11_22" x1="624.104" y1="-199.432" x2="-150.214" y2="607.123" gradientUnits="userSpaceOnUse">
<stop stop-color="#161B22"/>
<stop offset="0.5" stop-color="#949494"/>
<stop offset="1" stop-color="#222216"/>
</linearGradient>
<linearGradient id="paint5_linear_11_22" x1="624.104" y1="-199.432" x2="-150.214" y2="607.123" gradientUnits="userSpaceOnUse">
<stop stop-color="#161B22"/>
<stop offset="0.5" stop-color="#949494"/>
<stop offset="1" stop-color="#222216"/>
</linearGradient>
<linearGradient id="paint6_linear_11_22" x1="346.774" y1="106.577" x2="166.401" y2="351.159" gradientUnits="userSpaceOnUse">
<stop stop-color="#161B22"/>
<stop offset="0.5" stop-color="#949494"/>
<stop offset="1" stop-color="#222216"/>
</linearGradient>
<clipPath id="clip0_11_22">
<rect width="436" height="436" fill="white"/>
</clipPath>
</defs>
</svg>
