<svg width="40" height="40" viewBox="0 0 40 40" fill="none" xmlns="http://www.w3.org/2000/svg">
<rect width="40" height="40" rx="20" fill="#CDCDCD"/>
<path d="M32 19.9998C32 26.6278 26.6276 32 19.9997 32C13.3723 32 8 26.6278 8 19.9998C8 13.3723 13.3723 8 19.9997 8C26.6276 8 32 13.3723 32 19.9998Z" fill="#B3B3B3"/>
<path d="M18.9707 17.4584L21.848 20.3347C22.2633 20.7506 22.9376 20.7506 23.354 20.3347C23.7694 19.9189 23.7703 19.2451 23.354 18.8292L20.4765 15.9519C18.4177 13.8926 15.0901 13.8594 12.9876 15.8472C12.9679 15.8636 12.949 15.8807 12.9309 15.8986C12.9217 15.9078 12.9142 15.9176 12.9051 15.9258C12.8957 15.9348 12.8861 15.9429 12.8772 15.9519C12.8595 15.9698 12.8426 15.9884 12.8266 16.0078C10.8377 18.1113 10.8719 21.439 12.9309 23.4982L15.8083 26.375C16.2246 26.7906 16.898 26.7906 17.3141 26.375C17.7306 25.959 17.7306 25.2844 17.3152 24.8694L14.4377 21.9921C13.1816 20.7365 13.1732 18.6987 14.4116 17.4324C15.6778 16.1939 17.7144 16.2029 18.9707 17.4585V17.4584Z" fill="#29313C"/>
<path d="M22.6848 13.6266C22.269 14.0426 22.269 14.7163 22.6859 15.1321L25.5622 18.0096C26.8176 19.2651 26.8257 21.3026 25.5874 22.5692C24.3208 23.8067 22.2848 23.7985 21.029 22.5428L18.1516 19.6657C17.7355 19.2497 17.061 19.2497 16.6454 19.6657C16.2289 20.0813 16.2289 20.7571 16.6454 21.1718L19.5218 24.0493C21.5813 26.1086 24.9085 26.142 27.0114 24.154C27.0309 24.1367 27.0493 24.1207 27.0686 24.1025C27.0774 24.0936 27.0857 24.0845 27.0942 24.0753C27.1036 24.0664 27.1127 24.0582 27.1214 24.0482C27.1399 24.0311 27.1556 24.0122 27.172 23.9925C29.1609 21.8899 29.1277 18.5634 27.0687 16.5029L24.1913 13.6265C23.7755 13.21 23.1003 13.21 22.6848 13.6266Z" fill="#29313C"/>
</svg>
