<svg width="40" height="40" viewBox="0 0 40 40" fill="none" xmlns="http://www.w3.org/2000/svg">
<rect width="40" height="40" rx="20" fill="#29313C"/>
<path d="M32 19.9998C32 26.6278 26.6276 32 19.9997 32C13.3723 32 8 26.6278 8 19.9998C8 13.3723 13.3723 8 19.9997 8C26.6276 8 32 13.3723 32 19.9998Z" fill="#717A8A"/>
<path d="M18.9712 17.4585L21.8485 20.3347C22.2638 20.7506 22.9381 20.7506 23.3545 20.3347C23.7699 19.9189 23.7708 19.2452 23.3545 18.8293L20.477 15.9519C18.4182 13.8926 15.0906 13.8594 12.9881 15.8473C12.9684 15.8636 12.9495 15.8807 12.9313 15.8987C12.9222 15.9079 12.9147 15.9176 12.9056 15.9259C12.8962 15.9349 12.8866 15.9429 12.8777 15.9519C12.86 15.9698 12.8431 15.9885 12.8271 16.0079C10.8382 18.1114 10.8724 21.439 12.9314 23.4982L15.8088 26.375C16.2251 26.7906 16.8985 26.7906 17.3146 26.375C17.7311 25.9591 17.7311 25.2844 17.3157 24.8694L14.4382 21.9921C13.1821 20.7365 13.1737 18.6988 14.4121 17.4324C15.6783 16.194 17.7149 16.203 18.9712 17.4586V17.4585Z" fill="#29313C"/>
<path d="M22.6848 13.6266C22.269 14.0425 22.269 14.7162 22.6859 15.1321L25.5622 18.0096C26.8176 19.2651 26.8257 21.3025 25.5874 22.5692C24.3208 23.8067 22.2848 23.7984 21.029 22.5428L18.1516 19.6657C17.7355 19.2497 17.061 19.2497 16.6454 19.6657C16.2289 20.0813 16.2289 20.7571 16.6454 21.1718L19.5218 24.0493C21.5813 26.1085 24.9085 26.142 27.0114 24.1539C27.0309 24.1367 27.0493 24.1207 27.0686 24.1025C27.0774 24.0936 27.0857 24.0845 27.0942 24.0753C27.1036 24.0664 27.1127 24.0581 27.1214 24.0482C27.1399 24.031 27.1556 24.0122 27.172 23.9925C29.1609 21.8899 29.1277 18.5633 27.0687 16.5029L24.1913 13.6265C23.7755 13.2099 23.1003 13.2099 22.6848 13.6266Z" fill="#29313C"/>
</svg>
