<svg width="64" height="65" viewBox="0 0 64 65" fill="none" xmlns="http://www.w3.org/2000/svg">
<path d="M24.7487 7.60673L7.07107 25.2844C3.16582 29.1896 3.16582 35.5213 7.07107 39.4265L24.7487 57.1042C28.654 61.0094 34.9856 61.0094 38.8909 57.1042L56.5685 39.4265C60.4738 35.5213 60.4738 29.1896 56.5685 25.2844L38.8909 7.60673C34.9856 3.70149 28.654 3.70149 24.7487 7.60673Z" fill="#3B424B"/>
<path d="M39 26.225L37.775 25L32 30.775L26.225 25L25 26.225L30.775 32L25 37.775L26.225 39L32 33.225L37.775 39L39 37.775L33.225 32L39 26.225Z" fill="#EDD580"/>
</svg>
