<svg width="64" height="64" viewBox="0 0 64 64" fill="none" xmlns="http://www.w3.org/2000/svg">
<g clip-path="url(#clip0_287_1742)">
<path d="M24.7487 7.07158L7.07107 24.7492C3.16582 28.6545 3.16583 34.9861 7.07107 38.8914L24.7487 56.569C28.654 60.4743 34.9856 60.4743 38.8909 56.569L56.5685 38.8914C60.4738 34.9861 60.4738 28.6545 56.5685 24.7492L38.8909 7.07158C34.9856 3.16633 28.654 3.16633 24.7487 7.07158Z" fill="#F9EB37"/>
<path d="M39 25.6898L37.775 24.4648L32 30.2398L26.225 24.4648L25 25.6898L30.775 31.4648L25 37.2398L26.225 38.4648L32 32.6898L37.775 38.4648L39 37.2398L33.225 31.4648L39 25.6898Z" fill="black"/>
</g>
<defs>
<clipPath id="clip0_287_1742">
<rect width="64" height="64" fill="white"/>
</clipPath>
</defs>
</svg>
