<svg width="64" height="64" viewBox="0 0 64 64" fill="none" xmlns="http://www.w3.org/2000/svg">
<g clip-path="url(#clip0_287_1742)">
<path d="M24.7487 7.0706L7.07107 24.7483C3.16582 28.6535 3.16583 34.9852 7.07107 38.8904L24.7487 56.5681C28.654 60.4733 34.9856 60.4733 38.8909 56.5681L56.5685 38.8904C60.4738 34.9852 60.4738 28.6535 56.5685 24.7483L38.8909 7.0706C34.9856 3.16536 28.654 3.16536 24.7487 7.0706Z" fill="#EDD580"/>
<path d="M39 25.6898L37.775 24.4648L32 30.2398L26.225 24.4648L25 25.6898L30.775 31.4648L25 37.2398L26.225 38.4648L32 32.6898L37.775 38.4648L39 37.2398L33.225 31.4648L39 25.6898Z" fill="#5A5A58"/>
</g>
<defs>
<clipPath id="clip0_287_1742">
<rect width="64" height="64" fill="white"/>
</clipPath>
</defs>
</svg>
