<svg width="50" height="50" viewBox="0 0 50 50" fill="none" xmlns="http://www.w3.org/2000/svg">
<path d="M25.0003 24.9997C20.3978 24.9997 16.667 21.2689 16.667 16.6664C16.667 12.0639 20.3978 8.33301 25.0003 8.33301C29.6028 8.33301 33.3337 12.0639 33.3337 16.6664C33.3337 21.2689 29.6028 24.9997 25.0003 24.9997ZM25.0003 23.333C26.7684 23.333 28.4641 22.6307 29.7144 21.3804C30.9646 20.1302 31.667 18.4345 31.667 16.6664C31.667 14.8983 30.9646 13.2026 29.7144 11.9523C28.4641 10.7021 26.7684 9.99967 25.0003 9.99967C23.2322 9.99967 21.5365 10.7021 20.2863 11.9523C19.036 13.2026 18.3337 14.8983 18.3337 16.6664C18.3337 18.4345 19.036 20.1302 20.2863 21.3804C21.5365 22.6307 23.2322 23.333 25.0003 23.333ZM22.0837 18.333H26.667C26.7775 18.333 26.8835 18.2891 26.9616 18.211C27.0398 18.1329 27.0837 18.0269 27.0837 17.9164C27.0837 17.8059 27.0398 17.6999 26.9616 17.6217C26.8835 17.5436 26.7775 17.4997 26.667 17.4997H23.3337C22.7811 17.4997 22.2512 17.2802 21.8605 16.8895C21.4698 16.4988 21.2503 15.9689 21.2503 15.4164C21.2503 14.8638 21.4698 14.3339 21.8605 13.9432C22.2512 13.5525 22.7811 13.333 23.3337 13.333H24.167V11.6664H25.8337V13.333H27.917V14.9997H23.3337C23.2232 14.9997 23.1172 15.0436 23.039 15.1217C22.9609 15.1999 22.917 15.3059 22.917 15.4164C22.917 15.5269 22.9609 15.6329 23.039 15.711C23.1172 15.7891 23.2232 15.833 23.3337 15.833H26.667C27.2195 15.833 27.7494 16.0525 28.1401 16.4432C28.5308 16.8339 28.7503 17.3638 28.7503 17.9164C28.7503 18.4689 28.5308 18.9988 28.1401 19.3895C27.7494 19.7802 27.2195 19.9997 26.667 19.9997H25.8337V21.6664H24.167V19.9997H22.0837V18.333Z" fill="#5A5A58"/>
<path d="M15.0416 27.4643C15.3353 27.2202 15.7336 27.083 16.1489 27.083C16.5642 27.083 16.9625 27.2202 17.2562 27.4643L25.0091 33.9096L32.762 27.4643C33.0574 27.2271 33.453 27.0958 33.8637 27.0988C34.2744 27.1018 34.6672 27.2387 34.9576 27.4801C35.248 27.7215 35.4127 28.0481 35.4163 28.3895C35.4198 28.7309 35.262 29.0598 34.9767 29.3054L26.1165 36.6713C25.8227 36.9154 25.4244 37.0525 25.0091 37.0525C24.5938 37.0525 24.1955 36.9154 23.9018 36.6713L15.0416 29.3054C14.748 29.0612 14.583 28.7301 14.583 28.3848C14.583 28.0396 14.748 27.7084 15.0416 27.4643Z" fill="#5A5A58"/>
<path d="M4.16699 35.417L5.46074 40.5941C5.68606 41.4955 6.20621 42.2957 6.93851 42.8676C7.67082 43.4395 8.57326 43.7502 9.50241 43.7503H40.4982C41.4274 43.7502 42.3298 43.4395 43.0621 42.8676C43.7944 42.2957 44.3146 41.4955 44.5399 40.5941L45.8337 35.417" stroke="#5A5A58" stroke-width="2" stroke-linecap="round" stroke-linejoin="round"/>
</svg>
