<svg width="50" height="50" viewBox="0 0 50 50" fill="none" xmlns="http://www.w3.org/2000/svg">
<path d="M25.0003 25C20.3978 25 16.667 21.2692 16.667 16.6667C16.667 12.0642 20.3978 8.33334 25.0003 8.33334C29.6028 8.33334 33.3337 12.0642 33.3337 16.6667C33.3337 21.2692 29.6028 25 25.0003 25ZM25.0003 23.3333C26.7684 23.3333 28.4641 22.631 29.7144 21.3807C30.9646 20.1305 31.667 18.4348 31.667 16.6667C31.667 14.8986 30.9646 13.2029 29.7144 11.9526C28.4641 10.7024 26.7684 10 25.0003 10C23.2322 10 21.5365 10.7024 20.2863 11.9526C19.036 13.2029 18.3337 14.8986 18.3337 16.6667C18.3337 18.4348 19.036 20.1305 20.2863 21.3807C21.5365 22.631 23.2322 23.3333 25.0003 23.3333ZM22.0837 18.3333H26.667C26.7775 18.3333 26.8835 18.2894 26.9616 18.2113C27.0398 18.1332 27.0837 18.0272 27.0837 17.9167C27.0837 17.8062 27.0398 17.7002 26.9616 17.622C26.8835 17.5439 26.7775 17.5 26.667 17.5H23.3337C22.7811 17.5 22.2512 17.2805 21.8605 16.8898C21.4698 16.4991 21.2503 15.9692 21.2503 15.4167C21.2503 14.8641 21.4698 14.3342 21.8605 13.9435C22.2512 13.5528 22.7811 13.3333 23.3337 13.3333H24.167V11.6667H25.8337V13.3333H27.917V15H23.3337C23.2232 15 23.1172 15.0439 23.039 15.122C22.9609 15.2002 22.917 15.3062 22.917 15.4167C22.917 15.5272 22.9609 15.6332 23.039 15.7113C23.1172 15.7894 23.2232 15.8333 23.3337 15.8333H26.667C27.2195 15.8333 27.7494 16.0528 28.1401 16.4435C28.5308 16.8342 28.7503 17.3641 28.7503 17.9167C28.7503 18.4692 28.5308 18.9991 28.1401 19.3898C27.7494 19.7805 27.2195 20 26.667 20H25.8337V21.6667H24.167V20H22.0837V18.3333Z" fill="#29313C"/>
<path d="M15.0416 27.4646C15.3353 27.2205 15.7336 27.0833 16.1489 27.0833C16.5642 27.0833 16.9625 27.2205 17.2562 27.4646L25.0091 33.9099L32.762 27.4646C33.0574 27.2274 33.453 27.0961 33.8637 27.0991C34.2744 27.1021 34.6672 27.239 34.9576 27.4804C35.248 27.7218 35.4127 28.0484 35.4163 28.3898C35.4198 28.7312 35.262 29.0601 34.9767 29.3057L26.1165 36.6716C25.8227 36.9157 25.4244 37.0528 25.0091 37.0528C24.5938 37.0528 24.1955 36.9157 23.9018 36.6716L15.0416 29.3057C14.748 29.0615 14.583 28.7304 14.583 28.3851C14.583 28.0399 14.748 27.7087 15.0416 27.4646Z" fill="#29313C"/>
<path d="M4.16699 35.4167L5.46074 40.5938C5.68606 41.4952 6.20621 42.2954 6.93851 42.8673C7.67082 43.4392 8.57326 43.7499 9.50241 43.75H40.4982C41.4274 43.7499 42.3298 43.4392 43.0621 42.8673C43.7944 42.2954 44.3146 41.4952 44.5399 40.5938L45.8337 35.4167" stroke="#29313C" stroke-width="2" stroke-linecap="round" stroke-linejoin="round"/>
</svg>
