<svg width="50" height="50" viewBox="0 0 50 50" fill="none" xmlns="http://www.w3.org/2000/svg">
<path d="M25.0003 25.0007C20.3978 25.0007 16.667 21.2699 16.667 16.6674C16.667 12.0649 20.3978 8.33398 25.0003 8.33398C29.6028 8.33398 33.3337 12.0649 33.3337 16.6674C33.3337 21.2699 29.6028 25.0007 25.0003 25.0007ZM25.0003 23.334C26.7684 23.334 28.4641 22.6316 29.7144 21.3814C30.9646 20.1312 31.667 18.4355 31.667 16.6674C31.667 14.8993 30.9646 13.2036 29.7144 11.9533C28.4641 10.7031 26.7684 10.0006 25.0003 10.0006C23.2322 10.0006 21.5365 10.7031 20.2863 11.9533C19.036 13.2036 18.3337 14.8993 18.3337 16.6674C18.3337 18.4355 19.036 20.1312 20.2863 21.3814C21.5365 22.6316 23.2322 23.334 25.0003 23.334ZM22.0837 18.334H26.667C26.7775 18.334 26.8835 18.2901 26.9616 18.212C27.0398 18.1338 27.0837 18.0279 27.0837 17.9174C27.0837 17.8069 27.0398 17.7009 26.9616 17.6227C26.8835 17.5446 26.7775 17.5007 26.667 17.5007H23.3337C22.7811 17.5007 22.2512 17.2812 21.8605 16.8905C21.4698 16.4998 21.2503 15.9699 21.2503 15.4174C21.2503 14.8648 21.4698 14.3349 21.8605 13.9442C22.2512 13.5535 22.7811 13.334 23.3337 13.334H24.167V11.6674H25.8337V13.334H27.917V15.0007H23.3337C23.2232 15.0007 23.1172 15.0446 23.039 15.1227C22.9609 15.2009 22.917 15.3069 22.917 15.4174C22.917 15.5279 22.9609 15.6338 23.039 15.712C23.1172 15.7901 23.2232 15.834 23.3337 15.834H26.667C27.2195 15.834 27.7494 16.0535 28.1401 16.4442C28.5308 16.8349 28.7503 17.3648 28.7503 17.9174C28.7503 18.4699 28.5308 18.9998 28.1401 19.3905C27.7494 19.7812 27.2195 20.0007 26.667 20.0007H25.8337V21.6674H24.167V20.0007H22.0837V18.334Z" fill="#EDD580"/>
<path d="M15.0416 27.4653C15.3353 27.2212 15.7336 27.084 16.1489 27.084C16.5642 27.084 16.9625 27.2212 17.2562 27.4653L25.0091 33.9106L32.762 27.4653C33.0574 27.2281 33.453 27.0968 33.8637 27.0998C34.2744 27.1028 34.6672 27.2397 34.9576 27.4811C35.248 27.7225 35.4127 28.0491 35.4163 28.3905C35.4198 28.7319 35.262 29.0608 34.9767 29.3064L26.1165 36.6723C25.8227 36.9164 25.4244 37.0535 25.0091 37.0535C24.5938 37.0535 24.1955 36.9164 23.9018 36.6723L15.0416 29.3064C14.748 29.0622 14.583 28.7311 14.583 28.3858C14.583 28.0406 14.748 27.7094 15.0416 27.4653Z" fill="#EDD580"/>
<path d="M4.16699 35.416L5.46074 40.5931C5.68606 41.4945 6.20621 42.2947 6.93851 42.8666C7.67082 43.4385 8.57326 43.7492 9.50241 43.7493H40.4982C41.4274 43.7492 42.3298 43.4385 43.0621 42.8666C43.7944 42.2947 44.3146 41.4945 44.5399 40.5931L45.8337 35.416" stroke="#EDD580" stroke-width="2" stroke-linecap="round" stroke-linejoin="round"/>
</svg>
