<svg width="70" height="70" viewBox="0 0 70 70" fill="none" xmlns="http://www.w3.org/2000/svg">
<g clip-path="url(#clip0_287_1708)">
<mask id="mask0_287_1708" style="mask-type:luminance" maskUnits="userSpaceOnUse" x="0" y="0" width="70" height="70">
<path d="M70 0H0V70H70V0Z" fill="white"/>
</mask>
<g mask="url(#mask0_287_1708)">
<path d="M49.4792 32.083H2.52083C0.990544 32.083 -0.25 33.3235 -0.25 34.8538V35.1455C-0.25 36.6758 0.990544 37.9163 2.52083 37.9163H49.4792C51.0095 37.9163 52.25 36.6758 52.25 35.1455V34.8538C52.25 33.3235 51.0095 32.083 49.4792 32.083Z" fill="#EDD580"/>
<path d="M58.4792 46.667H11.5208C9.99054 46.667 8.75 47.9076 8.75 49.4379V49.7295C8.75 51.2598 9.99054 52.5004 11.5208 52.5004H58.4792C60.0095 52.5004 61.25 51.2598 61.25 49.7295V49.4379C61.25 47.9076 60.0095 46.667 58.4792 46.667Z" fill="#EDD580"/>
<path d="M58.4792 17.5H11.5208C9.99054 17.5 8.75 18.7405 8.75 20.2708V20.5625C8.75 22.0928 9.99054 23.3333 11.5208 23.3333H58.4792C60.0095 23.3333 61.25 22.0928 61.25 20.5625V20.2708C61.25 18.7405 60.0095 17.5 58.4792 17.5Z" fill="#EDD580"/>
</g>
</g>
<defs>
<clipPath id="clip0_287_1708">
<rect width="70" height="70" fill="white"/>
</clipPath>
</defs>
</svg>
