<svg width="70" height="70" viewBox="0 0 70 70" fill="none" xmlns="http://www.w3.org/2000/svg">
<g clip-path="url(#clip0_382_740)">
<path d="M49.4792 32.0834H2.52083C0.990544 32.0834 -0.25 33.3239 -0.25 34.8542V35.1459C-0.25 36.6762 0.990544 37.9167 2.52083 37.9167H49.4792C51.0095 37.9167 52.25 36.6762 52.25 35.1459V34.8542C52.25 33.3239 51.0095 32.0834 49.4792 32.0834Z" fill="#54AA2F"/>
<path d="M58.4792 46.6666H11.5208C9.99054 46.6666 8.75 47.9072 8.75 49.4375V49.7291C8.75 51.2594 9.99054 52.5 11.5208 52.5H58.4792C60.0095 52.5 61.25 51.2594 61.25 49.7291V49.4375C61.25 47.9072 60.0095 46.6666 58.4792 46.6666Z" fill="#54AA2F"/>
<path d="M58.4792 17.5H11.5208C9.99054 17.5 8.75 18.7405 8.75 20.2708V20.5625C8.75 22.0928 9.99054 23.3333 11.5208 23.3333H58.4792C60.0095 23.3333 61.25 22.0928 61.25 20.5625V20.2708C61.25 18.7405 60.0095 17.5 58.4792 17.5Z" fill="#54AA2F"/>
</g>
<defs>
<clipPath id="clip0_382_740">
<rect width="70" height="70" fill="white"/>
</clipPath>
</defs>
</svg>
