<svg width="70" height="70" viewBox="0 0 70 70" fill="none" xmlns="http://www.w3.org/2000/svg">
<g clip-path="url(#clip0_287_1708)">
<mask id="mask0_287_1708" style="mask-type:luminance" maskUnits="userSpaceOnUse" x="0" y="0" width="70" height="70">
<path d="M70 0H0V70H70V0Z" fill="white"/>
</mask>
<g mask="url(#mask0_287_1708)">
<path d="M49.4792 32.084H2.52083C0.990544 32.084 -0.25 33.3245 -0.25 34.8548V35.1465C-0.25 36.6768 0.990544 37.9173 2.52083 37.9173H49.4792C51.0095 37.9173 52.25 36.6768 52.25 35.1465V34.8548C52.25 33.3245 51.0095 32.084 49.4792 32.084Z" fill="#F9EB37"/>
<path d="M58.4792 46.666H11.5208C9.99054 46.666 8.75 47.9066 8.75 49.4369V49.7285C8.75 51.2588 9.99054 52.4994 11.5208 52.4994H58.4792C60.0095 52.4994 61.25 51.2588 61.25 49.7285V49.4369C61.25 47.9066 60.0095 46.666 58.4792 46.666Z" fill="#F9EB37"/>
<path d="M58.4792 17.5H11.5208C9.99054 17.5 8.75 18.7405 8.75 20.2708V20.5625C8.75 22.0928 9.99054 23.3333 11.5208 23.3333H58.4792C60.0095 23.3333 61.25 22.0928 61.25 20.5625V20.2708C61.25 18.7405 60.0095 17.5 58.4792 17.5Z" fill="#F9EB37"/>
</g>
</g>
<defs>
<clipPath id="clip0_287_1708">
<rect width="70" height="70" fill="white"/>
</clipPath>
</defs>
</svg>
