<svg width="50" height="50" viewBox="0 0 50 50" fill="none" xmlns="http://www.w3.org/2000/svg">
<path d="M24.9997 35.4164C19.2466 35.4164 14.583 30.7528 14.583 24.9997C14.583 19.2466 19.2466 14.583 24.9997 14.583C30.7528 14.583 35.4163 19.2466 35.4163 24.9997C35.4163 30.7528 30.7528 35.4164 24.9997 35.4164ZM24.9997 33.333C27.2098 33.333 29.3294 32.4551 30.8922 30.8923C32.455 29.3295 33.333 27.2098 33.333 24.9997C33.333 22.7896 32.455 20.6699 30.8922 19.1071C29.3294 17.5443 27.2098 16.6664 24.9997 16.6664C22.7895 16.6664 20.6699 17.5443 19.1071 19.1071C17.5443 20.6699 16.6663 22.7896 16.6663 24.9997C16.6663 27.2098 17.5443 29.3295 19.1071 30.8923C20.6699 32.4551 22.7895 33.333 24.9997 33.333ZM21.3538 27.083H27.083C27.2211 27.083 27.3536 27.0282 27.4513 26.9305C27.549 26.8328 27.6038 26.7003 27.6038 26.5622C27.6038 26.4241 27.549 26.2916 27.4513 26.1939C27.3536 26.0962 27.2211 26.0414 27.083 26.0414H22.9163C22.2257 26.0414 21.5633 25.767 21.0749 25.2786C20.5865 24.7903 20.3122 24.1279 20.3122 23.4372C20.3122 22.7465 20.5865 22.0842 21.0749 21.5958C21.5633 21.1074 22.2257 20.833 22.9163 20.833H23.958V18.7497H26.0413V20.833H28.6455V22.9164H22.9163C22.7782 22.9164 22.6457 22.9712 22.5481 23.0689C22.4504 23.1666 22.3955 23.2991 22.3955 23.4372C22.3955 23.5753 22.4504 23.7078 22.5481 23.8055C22.6457 23.9032 22.7782 23.958 22.9163 23.958H27.083C27.7737 23.958 28.4361 24.2324 28.9244 24.7208C29.4128 25.2092 29.6872 25.8715 29.6872 26.5622C29.6872 27.2529 29.4128 27.9153 28.9244 28.4036C28.4361 28.892 27.7737 29.1664 27.083 29.1664H26.0413V31.2497H23.958V29.1664H21.3538V27.083Z" fill="#5A5A58"/>
<path d="M37.8983 34.9578C37.6433 34.6641 37.5 34.2658 37.5 33.8505C37.5 33.4352 37.6433 33.0368 37.8983 32.7431L44.6327 24.9902L37.8983 17.2374C37.6505 16.942 37.5134 16.5463 37.5165 16.1357C37.5196 15.725 37.6627 15.3322 37.9149 15.0418C38.1672 14.7514 38.5084 14.5867 38.8651 14.5831C39.2218 14.5795 39.5655 14.7374 39.8221 15.0227L47.5183 23.8829C47.7734 24.1766 47.9167 24.5749 47.9167 24.9902C47.9167 25.4056 47.7734 25.8039 47.5183 26.0976L39.8221 34.9578C39.5669 35.2514 39.2209 35.4164 38.8602 35.4164C38.4994 35.4164 38.1535 35.2514 37.8983 34.9578Z" fill="#5A5A58"/>
<path d="M11.6546 15.0416C11.9097 15.3353 12.0529 15.7336 12.0529 16.1489C12.0529 16.5643 11.9097 16.9626 11.6546 17.2563L4.92015 25.0092L11.6546 32.762C11.9024 33.0574 12.0396 33.4531 12.0365 33.8637C12.0334 34.2744 11.8903 34.6672 11.638 34.9576C11.3858 35.248 11.0446 35.4127 10.6878 35.4163C10.3311 35.4199 9.98743 35.262 9.73083 34.9767L2.03456 26.1165C1.77951 25.8228 1.63623 25.4245 1.63623 25.0092C1.63623 24.5938 1.77951 24.1955 2.03456 23.9018L9.73083 15.0416C9.98596 14.748 10.332 14.583 10.6927 14.583C11.0535 14.583 11.3995 14.748 11.6546 15.0416Z" fill="#5A5A58"/>
</svg>
