<svg width="50" height="50" viewBox="0 0 50 50" fill="none" xmlns="http://www.w3.org/2000/svg">
<path d="M24.9997 35.4167C19.2466 35.4167 14.583 30.7531 14.583 25C14.583 19.2469 19.2466 14.5833 24.9997 14.5833C30.7528 14.5833 35.4163 19.2469 35.4163 25C35.4163 30.7531 30.7528 35.4167 24.9997 35.4167ZM24.9997 33.3333C27.2098 33.3333 29.3294 32.4554 30.8922 30.8926C32.455 29.3298 33.333 27.2101 33.333 25C33.333 22.7899 32.455 20.6702 30.8922 19.1074C29.3294 17.5446 27.2098 16.6667 24.9997 16.6667C22.7895 16.6667 20.6699 17.5446 19.1071 19.1074C17.5443 20.6702 16.6663 22.7899 16.6663 25C16.6663 27.2101 17.5443 29.3298 19.1071 30.8926C20.6699 32.4554 22.7895 33.3333 24.9997 33.3333ZM21.3538 27.0833H27.083C27.2211 27.0833 27.3536 27.0285 27.4513 26.9308C27.549 26.8331 27.6038 26.7006 27.6038 26.5625C27.6038 26.4244 27.549 26.2919 27.4513 26.1942C27.3536 26.0965 27.2211 26.0417 27.083 26.0417H22.9163C22.2257 26.0417 21.5633 25.7673 21.0749 25.2789C20.5865 24.7905 20.3122 24.1282 20.3122 23.4375C20.3122 22.7468 20.5865 22.0844 21.0749 21.5961C21.5633 21.1077 22.2257 20.8333 22.9163 20.8333H23.958V18.75H26.0413V20.8333H28.6455V22.9167H22.9163C22.7782 22.9167 22.6457 22.9715 22.5481 23.0692C22.4504 23.1669 22.3955 23.2994 22.3955 23.4375C22.3955 23.5756 22.4504 23.7081 22.5481 23.8058C22.6457 23.9035 22.7782 23.9583 22.9163 23.9583H27.083C27.7737 23.9583 28.4361 24.2327 28.9244 24.7211C29.4128 25.2094 29.6872 25.8718 29.6872 26.5625C29.6872 27.2532 29.4128 27.9155 28.9244 28.4039C28.4361 28.8923 27.7737 29.1667 27.083 29.1667H26.0413V31.25H23.958V29.1667H21.3538V27.0833Z" fill="#6DC501"/>
<path d="M37.8983 34.9581C37.6433 34.6644 37.5 34.2661 37.5 33.8508C37.5 33.4355 37.6433 33.0371 37.8983 32.7434L44.6327 24.9905L37.8983 17.2377C37.6505 16.9423 37.5134 16.5466 37.5165 16.136C37.5196 15.7253 37.6627 15.3325 37.9149 15.0421C38.1672 14.7517 38.5084 14.587 38.8651 14.5834C39.2218 14.5798 39.5655 14.7377 39.8221 15.023L47.5183 23.8832C47.7734 24.1769 47.9167 24.5752 47.9167 24.9905C47.9167 25.4059 47.7734 25.8042 47.5183 26.0979L39.8221 34.9581C39.5669 35.2517 39.2209 35.4167 38.8602 35.4167C38.4994 35.4167 38.1535 35.2517 37.8983 34.9581Z" fill="#6DC501"/>
<path d="M11.6544 15.0419C11.9095 15.3356 12.0527 15.7339 12.0527 16.1492C12.0527 16.5645 11.9095 16.9629 11.6544 17.2566L4.91999 25.0095L11.6544 32.7623C11.9022 33.0577 12.0394 33.4534 12.0363 33.864C12.0332 34.2747 11.8901 34.6675 11.6378 34.9579C11.3856 35.2483 11.0444 35.413 10.6876 35.4166C10.3309 35.4202 9.98727 35.2623 9.73067 34.977L2.0344 26.1168C1.77935 25.8231 1.63607 25.4248 1.63607 25.0095C1.63607 24.5941 1.77935 24.1958 2.0344 23.9021L9.73067 15.0419C9.9858 14.7483 10.3318 14.5833 10.6925 14.5833C11.0533 14.5833 11.3993 14.7483 11.6544 15.0419Z" fill="#6DC501"/>
</svg>
