<svg width="50" height="50" viewBox="0 0 50 50" fill="none" xmlns="http://www.w3.org/2000/svg">
<path d="M24.9997 35.4174C19.2466 35.4174 14.583 30.7538 14.583 25.0007C14.583 19.2476 19.2466 14.584 24.9997 14.584C30.7528 14.584 35.4163 19.2476 35.4163 25.0007C35.4163 30.7538 30.7528 35.4174 24.9997 35.4174ZM24.9997 33.334C27.2098 33.334 29.3294 32.4561 30.8922 30.8933C32.455 29.3305 33.333 27.2108 33.333 25.0007C33.333 22.7906 32.455 20.6709 30.8922 19.1081C29.3294 17.5453 27.2098 16.6674 24.9997 16.6674C22.7895 16.6674 20.6699 17.5453 19.1071 19.1081C17.5443 20.6709 16.6663 22.7906 16.6663 25.0007C16.6663 27.2108 17.5443 29.3305 19.1071 30.8933C20.6699 32.4561 22.7895 33.334 24.9997 33.334ZM21.3538 27.084H27.083C27.2211 27.084 27.3536 27.0292 27.4513 26.9315C27.549 26.8338 27.6038 26.7013 27.6038 26.5632C27.6038 26.4251 27.549 26.2926 27.4513 26.1949C27.3536 26.0972 27.2211 26.0424 27.083 26.0424H22.9163C22.2257 26.0424 21.5633 25.768 21.0749 25.2796C20.5865 24.7912 20.3122 24.1289 20.3122 23.4382C20.3122 22.7475 20.5865 22.0851 21.0749 21.5968C21.5633 21.1084 22.2257 20.834 22.9163 20.834H23.958V18.7507H26.0413V20.834H28.6455V22.9174H22.9163C22.7782 22.9174 22.6457 22.9722 22.5481 23.0699C22.4504 23.1676 22.3955 23.3001 22.3955 23.4382C22.3955 23.5763 22.4504 23.7088 22.5481 23.8065C22.6457 23.9042 22.7782 23.959 22.9163 23.959H27.083C27.7737 23.959 28.4361 24.2334 28.9244 24.7218C29.4128 25.2101 29.6872 25.8725 29.6872 26.5632C29.6872 27.2539 29.4128 27.9162 28.9244 28.4046C28.4361 28.893 27.7737 29.1674 27.083 29.1674H26.0413V31.2507H23.958V29.1674H21.3538V27.084Z" fill="#F9EB37"/>
<path d="M37.8983 34.9587C37.6433 34.665 37.5 34.2667 37.5 33.8514C37.5 33.4361 37.6433 33.0377 37.8983 32.744L44.6327 24.9911L37.8983 17.2383C37.6505 16.9429 37.5134 16.5472 37.5165 16.1366C37.5196 15.7259 37.6627 15.3331 37.9149 15.0427C38.1672 14.7523 38.5084 14.5876 38.8651 14.584C39.2218 14.5804 39.5655 14.7383 39.8221 15.0236L47.5183 23.8838C47.7734 24.1775 47.9167 24.5758 47.9167 24.9911C47.9167 25.4065 47.7734 25.8048 47.5183 26.0985L39.8221 34.9587C39.5669 35.2523 39.2209 35.4173 38.8602 35.4173C38.4994 35.4173 38.1535 35.2523 37.8983 34.9587Z" fill="#F9EB37"/>
<path d="M11.6546 15.0426C11.9097 15.3363 12.0529 15.7346 12.0529 16.1499C12.0529 16.5652 11.9097 16.9636 11.6546 17.2573L4.92015 25.0102L11.6546 32.763C11.9024 33.0584 12.0396 33.4541 12.0365 33.8647C12.0334 34.2754 11.8903 34.6682 11.638 34.9586C11.3858 35.249 11.0446 35.4137 10.6878 35.4173C10.3311 35.4209 9.98743 35.263 9.73083 34.9777L2.03456 26.1175C1.77951 25.8238 1.63623 25.4255 1.63623 25.0102C1.63623 24.5948 1.77951 24.1965 2.03456 23.9028L9.73083 15.0426C9.98596 14.749 10.332 14.584 10.6927 14.584C11.0535 14.584 11.3995 14.749 11.6546 15.0426Z" fill="#F9EB37"/>
</svg>
