<svg width="65" height="64" viewBox="0 0 65 64" fill="none" xmlns="http://www.w3.org/2000/svg">
<path d="M25.3933 7.25126L7.7156 24.9289C3.81036 28.8342 3.81036 35.1658 7.7156 39.0711L25.3933 56.7487C29.2985 60.654 35.6302 60.654 39.5354 56.7487L57.2131 39.0711C61.1183 35.1658 61.1183 28.8342 57.2131 24.9289L39.5354 7.25126C35.6302 3.34602 29.2985 3.34602 25.3933 7.25126Z" fill="#EDD580"/>
<mask id="mask0_287_1728" style="mask-type:luminance" maskUnits="userSpaceOnUse" x="19" y="18" width="28" height="28">
<path d="M47 18H19V46H47V18Z" fill="white"/>
</mask>
<g mask="url(#mask0_287_1728)">
<path d="M42.2451 30.1138C42.3334 29.9006 42.3565 29.6659 42.3115 29.4396C42.2664 29.2132 42.1552 29.0053 41.992 28.8421L36.1586 23.0088L34.509 24.6585L38.3508 28.5003H23.6671V30.8336H41.1671C41.3979 30.8337 41.6234 30.7653 41.8153 30.6372C42.0072 30.5091 42.1568 30.3269 42.2451 30.1138ZM23.7558 33.8868C23.6675 34.1001 23.6444 34.3347 23.6894 34.5611C23.7345 34.7874 23.8457 34.9953 24.009 35.1585L29.8423 40.9918L31.492 39.3421L27.6501 35.5003H42.3338V33.167H24.8338C24.603 33.1668 24.3774 33.2351 24.1855 33.3632C23.9936 33.4914 23.844 33.6736 23.7558 33.8868Z" fill="#5A5A58"/>
</g>
</svg>
