<svg width="65" height="64" viewBox="0 0 65 64" fill="none" xmlns="http://www.w3.org/2000/svg">
<path d="M25.3933 7.25126L7.7156 24.9289C3.81036 28.8342 3.81036 35.1658 7.7156 39.0711L25.3933 56.7487C29.2985 60.654 35.6302 60.654 39.5354 56.7487L57.2131 39.0711C61.1183 35.1658 61.1183 28.8342 57.2131 24.9289L39.5354 7.25126C35.6302 3.34602 29.2985 3.34602 25.3933 7.25126Z" fill="#3B424B"/>
<mask id="mask0_287_1735" style="mask-type:luminance" maskUnits="userSpaceOnUse" x="19" y="18" width="28" height="28">
<path d="M47 18H19V46H47V18Z" fill="white"/>
</mask>
<g mask="url(#mask0_287_1735)">
<path d="M42.2451 30.1128C42.3334 29.8996 42.3565 29.6649 42.3115 29.4386C42.2664 29.2122 42.1552 29.0043 41.992 28.8411L36.1586 23.0078L34.509 24.6575L38.3508 28.4993H23.6671V30.8326H41.1671C41.3979 30.8327 41.6234 30.7643 41.8153 30.6362C42.0072 30.5081 42.1568 30.3259 42.2451 30.1128ZM23.7558 33.8858C23.6675 34.099 23.6444 34.3337 23.6894 34.56C23.7345 34.7864 23.8457 34.9943 24.009 35.1575L29.8423 40.9908L31.492 39.3411L27.6501 35.4993H42.3338V33.166H24.8338C24.603 33.1658 24.3774 33.234 24.1855 33.3622C23.9936 33.4903 23.844 33.6726 23.7558 33.8858Z" fill="#F9EB37"/>
</g>
</svg>
