<svg width="65" height="64" viewBox="0 0 65 64" fill="none" xmlns="http://www.w3.org/2000/svg">
<rect x="0.644531" y="32" width="45" height="45" rx="10" transform="rotate(-45 0.644531 32)" fill="#3B424B"/>
<g clip-path="url(#clip0_348_127)">
<path d="M42.2451 30.1135C42.3334 29.9003 42.3565 29.6656 42.3115 29.4393C42.2664 29.2129 42.1552 29.005 41.992 28.8418L36.1586 23.0085L34.509 24.6582L38.3508 28.5H23.6671V30.8333H41.1671C41.3979 30.8334 41.6234 30.765 41.8153 30.6369C42.0072 30.5088 42.1568 30.3266 42.2451 30.1135ZM23.7558 33.8865C23.6675 34.0997 23.6444 34.3344 23.6894 34.5607C23.7345 34.7871 23.8457 34.995 24.009 35.1582L29.8423 40.9915L31.492 39.3418L27.6501 35.5H42.3338V33.1667H24.8338C24.603 33.1665 24.3774 33.2347 24.1855 33.3629C23.9936 33.491 23.844 33.6733 23.7558 33.8865Z" fill="#6DC501"/>
</g>
<defs>
<clipPath id="clip0_348_127">
<rect width="28" height="28" fill="white" transform="translate(19 18)"/>
</clipPath>
</defs>
</svg>
