<svg width="145" height="145" viewBox="0 0 145 145" fill="none" xmlns="http://www.w3.org/2000/svg">
<g clip-path="url(#clip0_122_105)">
<path d="M72.387 144.772C112.365 144.772 144.773 112.364 144.773 72.386C144.773 32.4083 112.365 0 72.387 0C32.4093 0 0.000976562 32.4083 0.000976562 72.386C0.000976562 112.364 32.4093 144.772 72.387 144.772Z" fill="#016608"/>
<path d="M107.053 116.94C102.387 108.107 72.3867 102.564 72.3867 102.564C72.3867 102.564 42.3867 108.107 37.7207 116.94C34.2717 129.198 31.3867 144.773 31.3867 144.773H72.3867H113.387C113.387 144.773 111.438 128.073 107.053 116.94Z" fill="#F1C9A5"/>
<path d="M72.3867 102.564C72.3867 102.564 102.387 108.107 107.053 116.94C111.439 128.073 113.387 144.773 113.387 144.773H72.3867V102.564Z" fill="#E4B692"/>
<path d="M80.5537 84.607H64.2197V111.943H80.5537V84.607Z" fill="#F1C9A5"/>
<path d="M80.5537 84.607H72.3867V111.943H80.5537V84.607Z" fill="#E4B692"/>
<path opacity="0.1" d="M64.2197 97.273C65.6887 101.49 71.6167 103.907 75.9707 103.907C77.5457 103.907 79.0777 103.643 80.5537 103.16V84.606H64.2197V97.273Z" fill="#DDAC8C"/>
<path d="M93.3867 67.357C93.3867 50.283 83.9847 40.574 72.3867 40.574C60.7887 40.574 51.3867 50.283 51.3867 67.357C51.3867 90.323 60.7887 98.274 72.3867 98.274C83.9837 98.274 93.3867 89.366 93.3867 67.357Z" fill="#F1C9A5"/>
<path d="M90.1893 79.197C86.3823 78.798 83.8123 74.697 84.4563 70.041C85.0933 65.381 88.6983 61.921 92.5073 62.317C96.3123 62.713 98.8783 66.813 98.2363 71.473C97.5983 76.134 93.9963 79.591 90.1893 79.197Z" fill="#E4B692"/>
<path d="M46.6846 71.474C46.0416 66.814 48.6086 62.714 52.4116 62.318C56.2226 61.921 59.8276 65.381 60.4666 70.042C61.1086 74.698 58.5366 78.8 54.7326 79.198C50.9246 79.591 47.3226 76.134 46.6846 71.474Z" fill="#F1C9A5"/>
<path d="M93.3867 67.357C93.3867 50.283 83.9847 40.574 72.3867 40.574V98.274C83.9837 98.274 93.3867 89.366 93.3867 67.357Z" fill="#E4B692"/>
<path d="M52.1882 73.014C52.1882 73.014 55.0762 67.463 56.3082 56.794C65.0212 65.073 75.2862 66.398 88.8542 56.794C89.1882 64.573 91.4632 69.425 94.1302 73.014C95.7712 59.573 99.3962 52.948 98.1792 45.884C89.1362 47.38 85.9522 39.948 72.3862 39.948C58.8182 39.948 55.7992 47.097 47.3682 46.458C47.3692 54.851 51.3872 59.323 52.1882 73.014Z" fill="black"/>
<path d="M107.053 116.94C104.063 111.28 90.6777 106.974 81.4427 104.609C81.0837 109.3 77.1707 112.998 72.3867 112.998C67.6037 112.998 63.6907 109.301 63.3307 104.609C54.0957 106.974 40.7107 111.28 37.7207 116.94C34.2717 129.198 31.3867 144.773 31.3867 144.773H72.3867H113.387C113.387 144.773 111.438 128.073 107.053 116.94Z" fill="#3E8AB5"/>
</g>
<defs>
<clipPath id="clip0_122_105">
<rect width="144.773" height="144.773" fill="white"/>
</clipPath>
</defs>
</svg>
