<svg width="31" height="32" viewBox="0 0 31 32" fill="none" xmlns="http://www.w3.org/2000/svg">
<path d="M31 16C31 24.8366 24.0604 32 15.5 32C6.93959 32 0 24.8366 0 16C0 7.16344 6.93959 0 15.5 0C24.0604 0 31 7.16344 31 16Z" fill="#FFA800" fill-opacity="0.6"/>
<path fill-rule="evenodd" clip-rule="evenodd" d="M22.2292 11.8541C22.0772 9.73559 20.3442 8.97893 18.1423 8.71623L18.2013 5.7851L16.4923 5.73808L16.4349 8.59197C15.9856 8.57963 15.5261 8.57621 15.0697 8.57311L15.1279 5.70034L13.4198 5.65311L13.3601 8.5834C12.9899 8.58107 12.6264 8.57821 12.2721 8.56866L12.272 8.55957L9.91489 8.49363L9.87689 10.3992C9.87689 10.3992 11.1394 10.4089 11.118 10.4326C11.8102 10.4519 12.027 10.8777 12.0853 11.2416L12.0181 14.5807C12.0658 14.5823 12.1281 14.5861 12.1984 14.5982L12.1405 14.5965C12.1009 14.5954 12.0598 14.5942 12.0179 14.5934L11.9231 19.2713C11.8881 19.4979 11.7528 19.857 11.2691 19.8445C11.2906 19.8653 10.0268 19.8098 10.0268 19.8098L9.64423 21.9312L11.8683 21.9925C12.1167 21.9997 12.3627 22.0093 12.6061 22.0187C12.7682 22.025 12.9292 22.0313 13.0889 22.0367L13.0299 25.0013L14.737 25.0487L14.7962 22.1155C15.2647 22.1386 15.7182 22.155 16.1611 22.1668L16.1015 25.0865L17.8105 25.1335L17.8707 22.1742C20.7474 22.0815 22.7736 21.3813 23.0801 18.5715C23.3275 16.3089 22.3259 15.2687 20.7032 14.8147C21.7047 14.3154 22.3429 13.4044 22.2292 11.8541ZM19.7101 18.127C19.6699 20.1595 16.6125 20.0307 15.2135 19.9718C15.0876 19.9665 14.9752 19.9618 14.8796 19.9592L14.9593 16.0314C15.0757 16.0347 15.2172 16.0351 15.3775 16.0356C16.8121 16.0398 19.7521 16.0485 19.7101 18.127ZM15.2767 14.2447C16.4438 14.297 18.9894 14.411 19.0272 12.5634C19.0651 10.6737 16.6151 10.6738 15.4185 10.6738C15.2839 10.6738 15.1652 10.6738 15.0676 10.6711L14.9956 14.2335C15.076 14.2357 15.1707 14.2399 15.2767 14.2447Z" fill="white"/>
</svg>
