<svg width="37" height="12" viewBox="0 0 37 12" fill="none" xmlns="http://www.w3.org/2000/svg">
<path d="M18.7709 3.73359C18.7464 5.36165 20.228 6.27973 21.3423 6.81834C22.481 7.36919 22.8729 7.73642 22.8606 8.22606C22.8484 8.98501 21.9545 9.32776 21.1096 9.34C19.6403 9.36448 18.7832 8.94828 18.0975 8.63002L17.571 11.1149C18.2567 11.4332 19.5178 11.7025 20.828 11.7148C23.9136 11.7148 25.9218 10.1969 25.934 7.83435C25.9462 4.84753 21.7953 4.67616 21.8198 3.34188C21.8321 2.93793 22.2116 2.50949 23.0688 2.39932C23.4851 2.33811 24.6483 2.30139 25.9585 2.9012L26.4728 0.501956C25.7626 0.244894 24.8565 7.23443e-05 23.73 7.23443e-05C20.828 -0.0121687 18.7954 1.5302 18.7709 3.73359ZM31.4318 0.19593C30.8686 0.19593 30.391 0.526439 30.1829 1.02832L25.7871 11.5311H28.8605L29.4727 9.84188H33.2318L33.5869 11.5311H36.3051L33.942 0.19593H31.4318ZM31.8604 3.25619L32.7542 7.51608H30.3175L31.8604 3.25619ZM15.0486 0.19593L12.6241 11.5311H15.5628L17.9873 0.19593H15.0486ZM10.7018 0.19593L7.65286 7.90779L6.41616 1.34659C6.26922 0.612125 5.69373 0.19593 5.06925 0.19593H0.0734644L0 0.526438C1.02854 0.746777 2.19177 1.10177 2.88972 1.49348C3.31827 1.72606 3.44073 1.93416 3.58766 2.48501L5.92637 11.5311H9.02426L13.7751 0.19593H10.7018Z" fill="#29313C"/>
</svg>
