<svg width="50" height="50" viewBox="0 0 50 50" fill="none" xmlns="http://www.w3.org/2000/svg">
<path d="M25.0003 37.5C20.3978 37.5 16.667 33.7692 16.667 29.1667C16.667 24.5642 20.3978 20.8333 25.0003 20.8333C29.6028 20.8333 33.3337 24.5642 33.3337 29.1667C33.3337 33.7692 29.6028 37.5 25.0003 37.5ZM25.0003 35.8333C26.7684 35.8333 28.4641 35.131 29.7144 33.8807C30.9646 32.6305 31.667 30.9348 31.667 29.1667C31.667 27.3986 30.9646 25.7029 29.7144 24.4526C28.4641 23.2024 26.7684 22.5 25.0003 22.5C23.2322 22.5 21.5365 23.2024 20.2863 24.4526C19.036 25.7029 18.3337 27.3986 18.3337 29.1667C18.3337 30.9348 19.036 32.6305 20.2863 33.8807C21.5365 35.131 23.2322 35.8333 25.0003 35.8333ZM22.0837 30.8333H26.667C26.7775 30.8333 26.8835 30.7894 26.9616 30.7113C27.0398 30.6332 27.0837 30.5272 27.0837 30.4167C27.0837 30.3062 27.0398 30.2002 26.9616 30.122C26.8835 30.0439 26.7775 30 26.667 30H23.3337C22.7811 30 22.2512 29.7805 21.8605 29.3898C21.4698 28.9991 21.2503 28.4692 21.2503 27.9167C21.2503 27.3641 21.4698 26.8342 21.8605 26.4435C22.2512 26.0528 22.7811 25.8333 23.3337 25.8333H24.167V24.1667H25.8337V25.8333H27.917V27.5H23.3337C23.2232 27.5 23.1172 27.5439 23.039 27.622C22.9609 27.7002 22.917 27.8062 22.917 27.9167C22.917 28.0272 22.9609 28.1332 23.039 28.2113C23.1172 28.2894 23.2232 28.3333 23.3337 28.3333H26.667C27.2195 28.3333 27.7494 28.5528 28.1401 28.9435C28.5308 29.3342 28.7503 29.8641 28.7503 30.4167C28.7503 30.9692 28.5308 31.4991 28.1401 31.8898C27.7494 32.2805 27.2195 32.5 26.667 32.5H25.8337V34.1667H24.167V32.5H22.0837V30.8333Z" fill="#29313C"/>
<path d="M34.9584 17.9216C34.6647 18.1657 34.2664 18.3028 33.8511 18.3028C33.4358 18.3028 33.0375 18.1657 32.7438 17.9216L24.9909 11.4762L17.238 17.9216C16.9426 18.1587 16.547 18.29 16.1363 18.287C15.7256 18.2841 15.3328 18.1471 15.0424 17.9057C14.752 17.6643 14.5873 17.3377 14.5837 16.9963C14.5802 16.6549 14.738 16.326 15.0233 16.0804L23.8835 8.71452C24.1773 8.47042 24.5756 8.33329 24.9909 8.33329C25.4062 8.33329 25.8045 8.47042 26.0982 8.71452L34.9584 16.0804C35.252 16.3246 35.417 16.6557 35.417 17.001C35.417 17.3462 35.252 17.6774 34.9584 17.9216Z" fill="#29313C"/>
<path d="M4.16699 35.4167L5.46074 40.5938C5.68606 41.4952 6.20621 42.2954 6.93851 42.8673C7.67082 43.4392 8.57326 43.7499 9.50241 43.75H40.4982C41.4274 43.7499 42.3298 43.4392 43.0621 42.8673C43.7944 42.2954 44.3146 41.4952 44.5399 40.5938L45.8337 35.4167" stroke="#29313C" stroke-width="2" stroke-linecap="round" stroke-linejoin="round"/>
</svg>
