<svg width="50" height="50" viewBox="0 0 50 50" fill="none" xmlns="http://www.w3.org/2000/svg">
<path d="M25.0003 37.5007C20.3978 37.5007 16.667 33.7699 16.667 29.1674C16.667 24.5649 20.3978 20.834 25.0003 20.834C29.6028 20.834 33.3337 24.5649 33.3337 29.1674C33.3337 33.7699 29.6028 37.5007 25.0003 37.5007ZM25.0003 35.834C26.7684 35.834 28.4641 35.1316 29.7144 33.8814C30.9646 32.6312 31.667 30.9355 31.667 29.1674C31.667 27.3993 30.9646 25.7036 29.7144 24.4533C28.4641 23.2031 26.7684 22.5007 25.0003 22.5007C23.2322 22.5007 21.5365 23.2031 20.2863 24.4533C19.036 25.7036 18.3337 27.3993 18.3337 29.1674C18.3337 30.9355 19.036 32.6312 20.2863 33.8814C21.5365 35.1316 23.2322 35.834 25.0003 35.834ZM22.0837 30.834H26.667C26.7775 30.834 26.8835 30.7901 26.9616 30.712C27.0398 30.6338 27.0837 30.5279 27.0837 30.4174C27.0837 30.3069 27.0398 30.2009 26.9616 30.1227C26.8835 30.0446 26.7775 30.0007 26.667 30.0007H23.3337C22.7811 30.0007 22.2512 29.7812 21.8605 29.3905C21.4698 28.9998 21.2503 28.4699 21.2503 27.9174C21.2503 27.3648 21.4698 26.8349 21.8605 26.4442C22.2512 26.0535 22.7811 25.834 23.3337 25.834H24.167V24.1674H25.8337V25.834H27.917V27.5007H23.3337C23.2232 27.5007 23.1172 27.5446 23.039 27.6227C22.9609 27.7009 22.917 27.8069 22.917 27.9174C22.917 28.0279 22.9609 28.1338 23.039 28.212C23.1172 28.2901 23.2232 28.334 23.3337 28.334H26.667C27.2195 28.334 27.7494 28.5535 28.1401 28.9442C28.5308 29.3349 28.7503 29.8648 28.7503 30.4174C28.7503 30.9699 28.5308 31.4998 28.1401 31.8905C27.7494 32.2812 27.2195 32.5007 26.667 32.5007H25.8337V34.1674H24.167V32.5007H22.0837V30.834Z" fill="#F9EB37"/>
<path d="M34.9583 17.9223C34.6646 18.1664 34.2663 18.3035 33.851 18.3035C33.4357 18.3035 33.0374 18.1664 32.7437 17.9223L24.9908 11.477L17.2379 17.9223C16.9425 18.1594 16.5469 18.2907 16.1362 18.2877C15.7255 18.2848 15.3327 18.1478 15.0423 17.9064C14.7519 17.665 14.5872 17.3384 14.5836 16.997C14.5801 16.6556 14.7379 16.3267 15.0232 16.0811L23.8834 8.71521C24.1772 8.47111 24.5755 8.33398 24.9908 8.33398C25.4061 8.33398 25.8044 8.47111 26.0981 8.71521L34.9583 16.0811C35.2519 16.3253 35.4169 16.6564 35.4169 17.0017C35.4169 17.347 35.2519 17.6781 34.9583 17.9223Z" fill="#F9EB37"/>
<path d="M4.16699 35.416L5.46074 40.5931C5.68606 41.4945 6.20621 42.2947 6.93851 42.8666C7.67082 43.4385 8.57326 43.7492 9.50241 43.7493H40.4982C41.4274 43.7492 42.3298 43.4385 43.0621 42.8666C43.7944 42.2947 44.3146 41.4945 44.5399 40.5931L45.8337 35.416" stroke="#F9EB37" stroke-width="2" stroke-linecap="round" stroke-linejoin="round"/>
</svg>
