<svg width="50" height="50" viewBox="0 0 50 50" fill="none" xmlns="http://www.w3.org/2000/svg">
<path d="M25.0003 37.4997C20.3978 37.4997 16.667 33.7689 16.667 29.1664C16.667 24.5639 20.3978 20.833 25.0003 20.833C29.6028 20.833 33.3337 24.5639 33.3337 29.1664C33.3337 33.7689 29.6028 37.4997 25.0003 37.4997ZM25.0003 35.833C26.7684 35.833 28.4641 35.1307 29.7144 33.8804C30.9646 32.6302 31.667 30.9345 31.667 29.1664C31.667 27.3983 30.9646 25.7026 29.7144 24.4523C28.4641 23.2021 26.7684 22.4997 25.0003 22.4997C23.2322 22.4997 21.5365 23.2021 20.2863 24.4523C19.036 25.7026 18.3337 27.3983 18.3337 29.1664C18.3337 30.9345 19.036 32.6302 20.2863 33.8804C21.5365 35.1307 23.2322 35.833 25.0003 35.833ZM22.0837 30.833H26.667C26.7775 30.833 26.8835 30.7891 26.9616 30.711C27.0398 30.6329 27.0837 30.5269 27.0837 30.4164C27.0837 30.3059 27.0398 30.1999 26.9616 30.1217C26.8835 30.0436 26.7775 29.9997 26.667 29.9997H23.3337C22.7811 29.9997 22.2512 29.7802 21.8605 29.3895C21.4698 28.9988 21.2503 28.4689 21.2503 27.9164C21.2503 27.3638 21.4698 26.8339 21.8605 26.4432C22.2512 26.0525 22.7811 25.833 23.3337 25.833H24.167V24.1664H25.8337V25.833H27.917V27.4997H23.3337C23.2232 27.4997 23.1172 27.5436 23.039 27.6217C22.9609 27.6999 22.917 27.8059 22.917 27.9164C22.917 28.0269 22.9609 28.1329 23.039 28.211C23.1172 28.2891 23.2232 28.333 23.3337 28.333H26.667C27.2195 28.333 27.7494 28.5525 28.1401 28.9432C28.5308 29.3339 28.7503 29.8638 28.7503 30.4164C28.7503 30.9689 28.5308 31.4988 28.1401 31.8895C27.7494 32.2802 27.2195 32.4997 26.667 32.4997H25.8337V34.1664H24.167V32.4997H22.0837V30.833Z" fill="#5A5A58"/>
<path d="M34.9583 17.9213C34.6646 18.1654 34.2663 18.3025 33.851 18.3025C33.4357 18.3025 33.0374 18.1654 32.7437 17.9213L24.9908 11.4759L17.2379 17.9213C16.9425 18.1584 16.5469 18.2897 16.1362 18.2867C15.7255 18.2838 15.3327 18.1468 15.0423 17.9054C14.7519 17.664 14.5872 17.3374 14.5836 16.996C14.5801 16.6546 14.7379 16.3257 15.0232 16.0801L23.8834 8.71424C24.1772 8.47014 24.5755 8.33301 24.9908 8.33301C25.4061 8.33301 25.8044 8.47014 26.0981 8.71424L34.9583 16.0801C35.2519 16.3243 35.4169 16.6554 35.4169 17.0007C35.4169 17.3459 35.2519 17.6771 34.9583 17.9213Z" fill="#5A5A58"/>
<path d="M4.16699 35.417L5.46074 40.5941C5.68606 41.4955 6.20621 42.2957 6.93851 42.8676C7.67082 43.4395 8.57326 43.7502 9.50241 43.7503H40.4982C41.4274 43.7502 42.3298 43.4395 43.0621 42.8676C43.7944 42.2957 44.3146 41.4955 44.5399 40.5941L45.8337 35.417" stroke="#5A5A58" stroke-width="2" stroke-linecap="round" stroke-linejoin="round"/>
</svg>
